<mxfile host="app.diagrams.net" agent="Mozilla/5.0 (Windows NT 10.0; Win64; x64) AppleWebKit/537.36 (KHTML, like Gecko) Chrome/125.0.0.0 Safari/537.36 OPR/111.0.0.0" version="24.7.7">
  <diagram name="Página-1" id="_VFJTtvU-go8s2D49URr">
    <mxGraphModel dx="1948" dy="1933" grid="1" gridSize="10" guides="1" tooltips="1" connect="1" arrows="1" fold="1" page="1" pageScale="1" pageWidth="827" pageHeight="1169" math="0" shadow="0">
      <root>
        <mxCell id="0" />
        <mxCell id="1" parent="0" />
        <mxCell id="5odvd3Q7TWwzpOIfsDg--1" value="Mensagem" style="text;html=1;align=center;verticalAlign=middle;whiteSpace=wrap;rounded=0;" vertex="1" parent="1">
          <mxGeometry x="240" y="264" width="60" height="30" as="geometry" />
        </mxCell>
        <mxCell id="5odvd3Q7TWwzpOIfsDg--2" value="" style="endArrow=classic;html=1;rounded=0;" edge="1" parent="1">
          <mxGeometry width="50" height="50" relative="1" as="geometry">
            <mxPoint x="320" y="278.57" as="sourcePoint" />
            <mxPoint x="400" y="278.57" as="targetPoint" />
          </mxGeometry>
        </mxCell>
        <mxCell id="5odvd3Q7TWwzpOIfsDg--3" value="" style="rounded=0;whiteSpace=wrap;html=1;fillColor=#e1d5e7;strokeColor=#9673a6;" vertex="1" parent="1">
          <mxGeometry x="400" y="244" width="140" height="70" as="geometry" />
        </mxCell>
        <mxCell id="5odvd3Q7TWwzpOIfsDg--4" value="Modelo de IA" style="text;html=1;align=center;verticalAlign=middle;whiteSpace=wrap;rounded=0;" vertex="1" parent="1">
          <mxGeometry x="440" y="264" width="60" height="30" as="geometry" />
        </mxCell>
        <mxCell id="5odvd3Q7TWwzpOIfsDg--5" value="Resposta" style="text;html=1;align=center;verticalAlign=middle;whiteSpace=wrap;rounded=0;" vertex="1" parent="1">
          <mxGeometry x="630" y="264" width="60" height="30" as="geometry" />
        </mxCell>
        <mxCell id="5odvd3Q7TWwzpOIfsDg--6" value="" style="endArrow=classic;html=1;rounded=0;" edge="1" parent="1">
          <mxGeometry width="50" height="50" relative="1" as="geometry">
            <mxPoint x="540" y="278.57" as="sourcePoint" />
            <mxPoint x="620" y="278.57" as="targetPoint" />
          </mxGeometry>
        </mxCell>
        <mxCell id="5odvd3Q7TWwzpOIfsDg--7" value="" style="endArrow=classic;html=1;rounded=0;" edge="1" parent="1">
          <mxGeometry width="50" height="50" relative="1" as="geometry">
            <mxPoint x="690" y="280" as="sourcePoint" />
            <mxPoint x="770" y="280" as="targetPoint" />
          </mxGeometry>
        </mxCell>
        <mxCell id="5odvd3Q7TWwzpOIfsDg--8" value="" style="shape=cylinder3;whiteSpace=wrap;html=1;boundedLbl=1;backgroundOutline=1;size=15;" vertex="1" parent="1">
          <mxGeometry x="770" y="225.67" width="80" height="106.67" as="geometry" />
        </mxCell>
        <mxCell id="5odvd3Q7TWwzpOIfsDg--9" value="Anotações" style="text;html=1;align=center;verticalAlign=middle;whiteSpace=wrap;rounded=0;" vertex="1" parent="1">
          <mxGeometry x="780" y="264" width="60" height="30" as="geometry" />
        </mxCell>
        <mxCell id="5odvd3Q7TWwzpOIfsDg--10" value="" style="ellipse;shape=cloud;whiteSpace=wrap;html=1;" vertex="1" parent="1">
          <mxGeometry x="890" y="100" width="271.99" height="181.33" as="geometry" />
        </mxCell>
        <mxCell id="5odvd3Q7TWwzpOIfsDg--11" value="" style="curved=1;endArrow=classic;html=1;rounded=0;" edge="1" parent="1">
          <mxGeometry width="50" height="50" relative="1" as="geometry">
            <mxPoint x="860" y="249" as="sourcePoint" />
            <mxPoint x="910" y="199" as="targetPoint" />
            <Array as="points">
              <mxPoint x="910" y="249" />
              <mxPoint x="860" y="199" />
            </Array>
          </mxGeometry>
        </mxCell>
        <mxCell id="5odvd3Q7TWwzpOIfsDg--12" value="Repositório no qual armazena-se o conjunto de mensagens recebidas e respondidas pelo modelo de IA&amp;nbsp;" style="text;html=1;align=center;verticalAlign=middle;whiteSpace=wrap;rounded=0;" vertex="1" parent="1">
          <mxGeometry x="940.99" y="151.32999999999998" width="176" height="90" as="geometry" />
        </mxCell>
        <mxCell id="5odvd3Q7TWwzpOIfsDg--14" value="" style="endArrow=classic;html=1;rounded=0;exitX=0.5;exitY=1;exitDx=0;exitDy=0;exitPerimeter=0;" edge="1" parent="1" source="5odvd3Q7TWwzpOIfsDg--8">
          <mxGeometry width="50" height="50" relative="1" as="geometry">
            <mxPoint x="810" y="360" as="sourcePoint" />
            <mxPoint x="810" y="400" as="targetPoint" />
          </mxGeometry>
        </mxCell>
        <mxCell id="5odvd3Q7TWwzpOIfsDg--16" value="" style="shape=cylinder3;whiteSpace=wrap;html=1;boundedLbl=1;backgroundOutline=1;size=15;" vertex="1" parent="1">
          <mxGeometry x="770" y="400" width="80" height="106.67" as="geometry" />
        </mxCell>
        <mxCell id="5odvd3Q7TWwzpOIfsDg--17" value="Amostras" style="text;html=1;align=center;verticalAlign=middle;whiteSpace=wrap;rounded=0;" vertex="1" parent="1">
          <mxGeometry x="780" y="438.33" width="60" height="30" as="geometry" />
        </mxCell>
        <mxCell id="5odvd3Q7TWwzpOIfsDg--18" value="" style="ellipse;shape=cloud;whiteSpace=wrap;html=1;" vertex="1" parent="1">
          <mxGeometry x="900" y="296.67" width="311.99" height="208" as="geometry" />
        </mxCell>
        <mxCell id="5odvd3Q7TWwzpOIfsDg--20" value="" style="curved=1;endArrow=classic;html=1;rounded=0;" edge="1" parent="1">
          <mxGeometry width="50" height="50" relative="1" as="geometry">
            <mxPoint x="860" y="450" as="sourcePoint" />
            <mxPoint x="920" y="400" as="targetPoint" />
            <Array as="points">
              <mxPoint x="910" y="450" />
              <mxPoint x="860" y="400" />
            </Array>
          </mxGeometry>
        </mxCell>
        <mxCell id="5odvd3Q7TWwzpOIfsDg--22" value="Local em que através de um método estatístico, extrai-se uma determinada quantidade de perguntas com base no repositório anterior" style="text;html=1;align=center;verticalAlign=middle;whiteSpace=wrap;rounded=0;" vertex="1" parent="1">
          <mxGeometry x="968" y="360" width="176" height="90" as="geometry" />
        </mxCell>
        <mxCell id="5odvd3Q7TWwzpOIfsDg--23" value="" style="endArrow=classic;html=1;rounded=0;exitX=0.5;exitY=1;exitDx=0;exitDy=0;exitPerimeter=0;" edge="1" parent="1">
          <mxGeometry width="50" height="50" relative="1" as="geometry">
            <mxPoint x="809.58" y="506.67" as="sourcePoint" />
            <mxPoint x="809.58" y="574.67" as="targetPoint" />
          </mxGeometry>
        </mxCell>
        <mxCell id="5odvd3Q7TWwzpOIfsDg--24" value="" style="shape=cylinder3;whiteSpace=wrap;html=1;boundedLbl=1;backgroundOutline=1;size=15;" vertex="1" parent="1">
          <mxGeometry x="770" y="575" width="80" height="106.67" as="geometry" />
        </mxCell>
        <mxCell id="5odvd3Q7TWwzpOIfsDg--26" value="Anotação" style="text;html=1;align=center;verticalAlign=middle;whiteSpace=wrap;rounded=0;" vertex="1" parent="1">
          <mxGeometry x="780" y="613.33" width="60" height="30" as="geometry" />
        </mxCell>
        <mxCell id="5odvd3Q7TWwzpOIfsDg--28" value="" style="ellipse;shape=cloud;whiteSpace=wrap;html=1;" vertex="1" parent="1">
          <mxGeometry x="340" y="504.66999999999996" width="331.99" height="221.34" as="geometry" />
        </mxCell>
        <mxCell id="5odvd3Q7TWwzpOIfsDg--29" value="Uma vez armazenados as perguntas, essas seguem para um outro repositório, no qual são armazenadas para serem utilizadas para a criação do dataset de treinamento do modelo de IA" style="text;html=1;align=center;verticalAlign=middle;whiteSpace=wrap;rounded=0;" vertex="1" parent="1">
          <mxGeometry x="420" y="570.57" width="192" height="98.18" as="geometry" />
        </mxCell>
        <mxCell id="5odvd3Q7TWwzpOIfsDg--30" value="" style="endArrow=classic;html=1;rounded=0;" edge="1" parent="1">
          <mxGeometry width="50" height="50" relative="1" as="geometry">
            <mxPoint x="760" y="620" as="sourcePoint" />
            <mxPoint x="670" y="620" as="targetPoint" />
          </mxGeometry>
        </mxCell>
        <mxCell id="5odvd3Q7TWwzpOIfsDg--31" value="" style="endArrow=classic;html=1;rounded=0;" edge="1" parent="1">
          <mxGeometry width="50" height="50" relative="1" as="geometry">
            <mxPoint x="860" y="620" as="sourcePoint" />
            <mxPoint x="960" y="620" as="targetPoint" />
          </mxGeometry>
        </mxCell>
        <mxCell id="5odvd3Q7TWwzpOIfsDg--33" value="" style="rounded=0;whiteSpace=wrap;html=1;fillColor=#e1d5e7;strokeColor=#9673a6;" vertex="1" parent="1">
          <mxGeometry x="958.99" y="584.66" width="140" height="70" as="geometry" />
        </mxCell>
        <mxCell id="5odvd3Q7TWwzpOIfsDg--34" value="Extrai-se os dados do repositório" style="text;html=1;align=center;verticalAlign=middle;whiteSpace=wrap;rounded=0;" vertex="1" parent="1">
          <mxGeometry x="974.5" y="601.69" width="108.99" height="35.93" as="geometry" />
        </mxCell>
        <mxCell id="5odvd3Q7TWwzpOIfsDg--35" value="" style="endArrow=classic;html=1;rounded=0;" edge="1" parent="1">
          <mxGeometry width="50" height="50" relative="1" as="geometry">
            <mxPoint x="1098.99" y="619.23" as="sourcePoint" />
            <mxPoint x="1198.99" y="619.23" as="targetPoint" />
          </mxGeometry>
        </mxCell>
        <mxCell id="5odvd3Q7TWwzpOIfsDg--36" value="" style="rounded=0;whiteSpace=wrap;html=1;fillColor=#e1d5e7;strokeColor=#9673a6;" vertex="1" parent="1">
          <mxGeometry x="1200" y="585" width="140" height="70" as="geometry" />
        </mxCell>
        <mxCell id="5odvd3Q7TWwzpOIfsDg--37" value="Elabora o dataset" style="text;html=1;align=center;verticalAlign=middle;whiteSpace=wrap;rounded=0;" vertex="1" parent="1">
          <mxGeometry x="1215.51" y="602.0300000000001" width="108.99" height="35.93" as="geometry" />
        </mxCell>
        <mxCell id="5odvd3Q7TWwzpOIfsDg--38" value="" style="endArrow=classic;html=1;rounded=0;" edge="1" parent="1">
          <mxGeometry width="50" height="50" relative="1" as="geometry">
            <mxPoint x="1340" y="619.23" as="sourcePoint" />
            <mxPoint x="1440" y="619.23" as="targetPoint" />
          </mxGeometry>
        </mxCell>
        <mxCell id="5odvd3Q7TWwzpOIfsDg--39" value="" style="rounded=0;whiteSpace=wrap;html=1;fillColor=#e1d5e7;strokeColor=#9673a6;" vertex="1" parent="1">
          <mxGeometry x="1441.01" y="585" width="140" height="70" as="geometry" />
        </mxCell>
        <mxCell id="5odvd3Q7TWwzpOIfsDg--40" value="Realiza o treinamento" style="text;html=1;align=center;verticalAlign=middle;whiteSpace=wrap;rounded=0;" vertex="1" parent="1">
          <mxGeometry x="1456.52" y="602.0300000000001" width="108.99" height="35.93" as="geometry" />
        </mxCell>
        <mxCell id="5odvd3Q7TWwzpOIfsDg--49" style="edgeStyle=orthogonalEdgeStyle;rounded=0;orthogonalLoop=1;jettySize=auto;html=1;exitX=0.5;exitY=0;exitDx=0;exitDy=0;exitPerimeter=0;entryX=1;entryY=0.5;entryDx=0;entryDy=0;" edge="1" parent="1" source="5odvd3Q7TWwzpOIfsDg--41" target="5odvd3Q7TWwzpOIfsDg--47">
          <mxGeometry relative="1" as="geometry" />
        </mxCell>
        <mxCell id="5odvd3Q7TWwzpOIfsDg--41" value="" style="shape=cylinder3;whiteSpace=wrap;html=1;boundedLbl=1;backgroundOutline=1;size=15;fillColor=#e1d5e7;strokeColor=#9673a6;" vertex="1" parent="1">
          <mxGeometry x="1471.01" y="410" width="80" height="106.67" as="geometry" />
        </mxCell>
        <mxCell id="5odvd3Q7TWwzpOIfsDg--42" value="Repositório dos modelos criados" style="text;html=1;align=center;verticalAlign=middle;whiteSpace=wrap;rounded=0;" vertex="1" parent="1">
          <mxGeometry x="1481.01" y="459.99999999999994" width="60" height="30" as="geometry" />
        </mxCell>
        <mxCell id="5odvd3Q7TWwzpOIfsDg--44" value="" style="endArrow=classic;html=1;rounded=0;exitX=0.5;exitY=0;exitDx=0;exitDy=0;" edge="1" parent="1" source="5odvd3Q7TWwzpOIfsDg--39">
          <mxGeometry width="50" height="50" relative="1" as="geometry">
            <mxPoint x="1515.51" y="570.57" as="sourcePoint" />
            <mxPoint x="1511" y="520" as="targetPoint" />
          </mxGeometry>
        </mxCell>
        <mxCell id="5odvd3Q7TWwzpOIfsDg--50" style="edgeStyle=orthogonalEdgeStyle;rounded=0;orthogonalLoop=1;jettySize=auto;html=1;exitX=0;exitY=0.5;exitDx=0;exitDy=0;entryX=0.5;entryY=0;entryDx=0;entryDy=0;" edge="1" parent="1" source="5odvd3Q7TWwzpOIfsDg--47" target="5odvd3Q7TWwzpOIfsDg--3">
          <mxGeometry relative="1" as="geometry" />
        </mxCell>
        <mxCell id="5odvd3Q7TWwzpOIfsDg--47" value="" style="rounded=0;whiteSpace=wrap;html=1;fillColor=#e1d5e7;strokeColor=#9673a6;" vertex="1" parent="1">
          <mxGeometry x="790" y="-10" width="140" height="70" as="geometry" />
        </mxCell>
        <mxCell id="5odvd3Q7TWwzpOIfsDg--48" value="Atualização do modelo de IA" style="text;html=1;align=center;verticalAlign=middle;whiteSpace=wrap;rounded=0;" vertex="1" parent="1">
          <mxGeometry x="810" width="100" height="50" as="geometry" />
        </mxCell>
      </root>
    </mxGraphModel>
  </diagram>
</mxfile>
